<svg xmlns="http://www.w3.org/2000/svg" xmlns:xlink="http://www.w3.org/1999/xlink" width="1500" zoomAndPan="magnify" viewBox="0 0 1125 374.999991" height="500" preserveAspectRatio="xMidYMid meet" version="1.0"><defs><g/></defs><g fill="#fcfcfd" fill-opacity="1"><g transform="translate(42.858321, 238.522015)"><g><path d="M 90.921875 -122.390625 C 91.972656 -122.273438 94.65625 -122.242188 98.96875 -122.296875 C 103.28125 -122.359375 106.742188 -122.359375 109.359375 -122.296875 C 111.984375 -122.242188 114.109375 -122.007812 115.734375 -121.59375 C 117.367188 -121.1875 118.59375 -120.867188 119.40625 -120.640625 C 120.226562 -120.410156 121.019531 -120.0625 121.78125 -119.59375 C 122.539062 -119.125 123.066406 -118.710938 123.359375 -118.359375 C 123.648438 -118.015625 124.144531 -117.492188 124.84375 -116.796875 C 125.070312 -115.859375 125.359375 -115.1875 125.703125 -114.78125 C 126.054688 -114.375 126.175781 -114.023438 126.0625 -113.734375 C 125.945312 -113.441406 126.003906 -112.832031 126.234375 -111.90625 C 125.421875 -111.195312 124.8125 -110.726562 124.40625 -110.5 C 124 -110.269531 123.414062 -110.035156 122.65625 -109.796875 C 121.894531 -109.566406 120.8125 -109.273438 119.40625 -108.921875 C 118.007812 -108.578125 116.816406 -108.34375 115.828125 -108.21875 C 114.835938 -108.101562 113.90625 -107.84375 113.03125 -107.4375 C 112.15625 -107.03125 111.367188 -106.828125 110.671875 -106.828125 C 109.972656 -106.828125 109.445312 -106.625 109.09375 -106.21875 C 108.75 -105.8125 108.140625 -105.664062 107.265625 -105.78125 C 106.390625 -105.894531 105.773438 -105.863281 105.421875 -105.6875 C 105.078125 -105.519531 104.671875 -105.460938 104.203125 -105.515625 C 103.734375 -105.578125 103.351562 -105.488281 103.0625 -105.25 C 102.78125 -105.019531 102.285156 -104.875 101.578125 -104.8125 C 100.878906 -104.757812 100.328125 -104.585938 99.921875 -104.296875 C 99.515625 -104.003906 99.132812 -103.796875 98.78125 -103.671875 C 98.4375 -103.554688 97.972656 -103.53125 97.390625 -103.59375 C 96.804688 -103.65625 96.25 -103.65625 95.71875 -103.59375 C 95.195312 -103.53125 94.53125 -103.351562 93.71875 -103.0625 C 92.90625 -102.78125 91.445312 -102.550781 89.34375 -102.375 C 87.25 -102.195312 86.054688 -101.90625 85.765625 -101.5 C 85.472656 -101.09375 85.148438 -100.890625 84.796875 -100.890625 C 84.453125 -100.890625 83.753906 -100.972656 82.703125 -101.140625 C 81.648438 -101.316406 80.945312 -101.257812 80.59375 -100.96875 C 80.25 -100.675781 79.753906 -100.53125 79.109375 -100.53125 C 78.472656 -100.53125 78.007812 -100.296875 77.71875 -99.828125 C 77.425781 -99.367188 76.695312 -99.164062 75.53125 -99.21875 C 74.363281 -99.28125 73.488281 -99.109375 72.90625 -98.703125 C 72.320312 -98.296875 71.679688 -98.117188 70.984375 -98.171875 C 70.285156 -98.234375 69.878906 -98.234375 69.765625 -98.171875 C 69.648438 -98.117188 69.472656 -97.972656 69.234375 -97.734375 L 67.3125 -98.09375 L 66.609375 -97.390625 L 66.09375 -97.734375 C 65.738281 -97.617188 65.382812 -97.503906 65.03125 -97.390625 C 64.6875 -97.273438 63.960938 -97.097656 62.859375 -96.859375 C 61.753906 -96.628906 60.9375 -96.597656 60.40625 -96.765625 C 59.882812 -96.941406 59.476562 -97.085938 59.1875 -97.203125 C 58.894531 -97.328125 58.457031 -97.332031 57.875 -97.21875 L 57.875 -96.171875 C 56.9375 -96.046875 56.085938 -95.984375 55.328125 -95.984375 C 54.578125 -95.984375 53.765625 -95.894531 52.890625 -95.71875 C 52.015625 -95.550781 51.195312 -95.4375 50.4375 -95.375 C 49.6875 -95.320312 49.046875 -95.175781 48.515625 -94.9375 C 47.992188 -94.707031 47.441406 -94.59375 46.859375 -94.59375 C 46.273438 -94.59375 45.691406 -94.648438 45.109375 -94.765625 L 43.890625 -93.890625 C 43.421875 -94.003906 43.066406 -94.175781 42.828125 -94.40625 C 42.597656 -94.644531 42.191406 -94.789062 41.609375 -94.84375 C 41.023438 -94.90625 40.382812 -94.789062 39.6875 -94.5 C 38.988281 -94.207031 38.519531 -94.0625 38.28125 -94.0625 C 38.050781 -94.0625 37.613281 -94.175781 36.96875 -94.40625 C 36.332031 -94.644531 35.519531 -94.851562 34.53125 -95.03125 C 33.539062 -95.207031 32.8125 -95.0625 32.34375 -94.59375 C 31.875 -94.125 31.347656 -93.976562 30.765625 -94.15625 C 30.179688 -94.332031 29.65625 -94.15625 29.1875 -93.625 C 28.726562 -93.101562 27.941406 -92.867188 26.828125 -92.921875 C 25.722656 -92.984375 24.410156 -93.128906 22.890625 -93.359375 C 21.378906 -93.597656 20.273438 -93.976562 19.578125 -94.5 C 18.878906 -95.03125 17.976562 -95.296875 16.875 -95.296875 C 15.769531 -95.296875 14.570312 -95.5 13.28125 -95.90625 C 12 -96.3125 11.125 -96.71875 10.65625 -97.125 C 10.195312 -97.53125 9.5625 -98.023438 8.75 -98.609375 C 8.039062 -100.003906 7.507812 -101.023438 7.15625 -101.671875 C 6.8125 -102.316406 6.492188 -103.070312 6.203125 -103.9375 C 5.910156 -104.8125 5.765625 -105.628906 5.765625 -106.390625 C 5.765625 -107.148438 5.675781 -107.757812 5.5 -108.21875 C 5.332031 -108.6875 5.273438 -109.328125 5.328125 -110.140625 C 5.390625 -110.960938 5.625 -111.488281 6.03125 -111.71875 C 6.4375 -111.957031 6.757812 -112.367188 7 -112.953125 C 7.925781 -113.179688 8.648438 -113.351562 9.171875 -113.46875 C 9.703125 -113.59375 10.171875 -113.769531 10.578125 -114 C 10.984375 -114.226562 11.390625 -114.457031 11.796875 -114.6875 C 12.203125 -114.925781 12.550781 -115.046875 12.84375 -115.046875 C 13.132812 -115.046875 13.398438 -114.8125 13.640625 -114.34375 C 15.148438 -114.925781 16.195312 -115.363281 16.78125 -115.65625 C 17.363281 -115.945312 17.800781 -116.003906 18.09375 -115.828125 C 18.382812 -115.660156 18.9375 -115.515625 19.75 -115.390625 C 20.101562 -115.515625 20.335938 -115.660156 20.453125 -115.828125 C 20.566406 -116.003906 20.769531 -116.09375 21.0625 -116.09375 C 21.351562 -116.09375 21.757812 -116.238281 22.28125 -116.53125 C 22.8125 -116.820312 24.15625 -117.082031 26.3125 -117.3125 C 28.46875 -117.550781 29.894531 -117.40625 30.59375 -116.875 C 31.289062 -116.351562 32.222656 -116.296875 33.390625 -116.703125 C 34.554688 -117.109375 35.722656 -117.3125 36.890625 -117.3125 C 38.054688 -117.3125 39.25 -117.488281 40.46875 -117.84375 C 41.695312 -118.195312 43.039062 -118.3125 44.5 -118.1875 C 45.957031 -118.070312 46.976562 -118.070312 47.5625 -118.1875 C 48.144531 -118.3125 48.695312 -118.519531 49.21875 -118.8125 C 49.738281 -119.101562 50.671875 -119.160156 52.015625 -118.984375 C 53.359375 -118.804688 54.4375 -118.976562 55.25 -119.5 C 56.0625 -120.03125 57.488281 -120.0625 59.53125 -119.59375 C 61.570312 -119.125 63.40625 -119.328125 65.03125 -120.203125 C 66.664062 -121.078125 68.675781 -121.367188 71.0625 -121.078125 C 73.457031 -120.785156 75.0625 -120.8125 75.875 -121.15625 C 76.695312 -121.507812 77.515625 -121.742188 78.328125 -121.859375 C 79.140625 -121.984375 80.625 -122.015625 82.78125 -121.953125 C 84.9375 -121.890625 86.710938 -121.890625 88.109375 -121.953125 C 89.515625 -122.015625 90.273438 -122.070312 90.390625 -122.125 C 90.503906 -122.1875 90.679688 -122.273438 90.921875 -122.390625 Z M 54.203125 -90.390625 C 55.367188 -90.046875 56.210938 -89.84375 56.734375 -89.78125 C 57.265625 -89.71875 57.90625 -89.394531 58.65625 -88.8125 C 59.414062 -88.238281 60.203125 -87.953125 61.015625 -87.953125 C 61.835938 -87.953125 62.507812 -87.832031 63.03125 -87.59375 C 63.550781 -87.363281 64.335938 -86.835938 65.390625 -86.015625 C 66.671875 -84.273438 67.628906 -83.140625 68.265625 -82.609375 C 68.910156 -82.085938 69.40625 -81.210938 69.75 -79.984375 C 70.101562 -78.765625 70.570312 -77.539062 71.15625 -76.3125 C 71.738281 -75.09375 72.03125 -74.015625 72.03125 -73.078125 C 72.03125 -72.148438 72.175781 -71.101562 72.46875 -69.9375 C 72.757812 -68.769531 72.929688 -67.488281 72.984375 -66.09375 C 73.046875 -64.695312 73.253906 -63.53125 73.609375 -62.59375 C 73.960938 -61.664062 74.164062 -60.734375 74.21875 -59.796875 C 74.28125 -58.859375 74.484375 -57.425781 74.828125 -55.5 C 75.179688 -53.582031 75.328125 -52.128906 75.265625 -51.140625 C 75.210938 -50.148438 75.332031 -48.984375 75.625 -47.640625 C 75.914062 -46.304688 76.0625 -44.96875 76.0625 -43.625 C 76.0625 -42.28125 76.234375 -41.054688 76.578125 -39.953125 C 76.929688 -38.847656 77.078125 -37.796875 77.015625 -36.796875 C 76.960938 -35.804688 77.019531 -34.90625 77.1875 -34.09375 C 77.363281 -33.28125 77.507812 -31.941406 77.625 -30.078125 C 77.75 -28.210938 77.867188 -25.472656 77.984375 -21.859375 C 78.097656 -18.242188 78.035156 -16.144531 77.796875 -15.5625 C 77.566406 -14.976562 77.539062 -14.484375 77.71875 -14.078125 C 77.894531 -13.671875 77.894531 -13.289062 77.71875 -12.9375 C 77.539062 -12.582031 77.476562 -12.316406 77.53125 -12.140625 C 77.59375 -11.972656 77.6875 -11.710938 77.8125 -11.359375 C 77.6875 -11.015625 77.566406 -10.609375 77.453125 -10.140625 C 77.335938 -9.671875 77.28125 -9.054688 77.28125 -8.296875 C 77.28125 -7.546875 77.160156 -6.644531 76.921875 -5.59375 C 76.691406 -4.539062 76.34375 -3.34375 75.875 -2 C 75.414062 -0.664062 74.953125 0.347656 74.484375 1.046875 C 74.015625 1.515625 73.632812 1.863281 73.34375 2.09375 C 73.050781 2.332031 72.5 2.476562 71.6875 2.53125 C 70.875 2.59375 69.242188 2.273438 66.796875 1.578125 C 64.347656 0.878906 62.769531 0.269531 62.0625 -0.25 C 61.363281 -0.78125 60.492188 -1.570312 59.453125 -2.625 C 58.285156 -4.375 57.523438 -5.539062 57.171875 -6.125 C 56.828125 -6.707031 56.65625 -7.347656 56.65625 -8.046875 C 56.65625 -8.742188 56.390625 -9.46875 55.859375 -10.21875 C 55.335938 -10.976562 54.929688 -11.910156 54.640625 -13.015625 C 54.347656 -14.128906 54.171875 -15.238281 54.109375 -16.34375 C 54.054688 -17.457031 53.882812 -18.972656 53.59375 -20.890625 C 53.300781 -22.816406 52.976562 -24.242188 52.625 -25.171875 C 52.28125 -26.109375 52.109375 -27.390625 52.109375 -29.015625 C 52.109375 -30.648438 51.960938 -32.078125 51.671875 -33.296875 C 51.378906 -34.523438 51.234375 -35.78125 51.234375 -37.0625 C 51.234375 -38.34375 51 -40.46875 50.53125 -43.4375 C 50.0625 -46.414062 49.769531 -51.429688 49.65625 -58.484375 C 49.539062 -65.535156 49.566406 -69.9375 49.734375 -71.6875 C 49.910156 -73.4375 50 -74.6875 50 -75.4375 C 50 -76.195312 49.941406 -77.101562 49.828125 -78.15625 C 49.710938 -79.207031 49.828125 -80.601562 50.171875 -82.34375 C 50.523438 -84.09375 50.816406 -85.492188 51.046875 -86.546875 C 51.285156 -87.597656 51.460938 -88.296875 51.578125 -88.640625 C 51.691406 -88.992188 51.984375 -89.285156 52.453125 -89.515625 Z M 54.203125 -90.390625 "/></g></g></g><g fill="#fcfcfd" fill-opacity="1"><g transform="translate(258.084871, 238.522015)"><g><path d="M 5.25 -89.875 C 5.945312 -89.875 6.5 -89.898438 6.90625 -89.953125 C 7.3125 -90.015625 7.628906 -89.925781 7.859375 -89.6875 C 8.097656 -89.457031 8.625 -89.3125 9.4375 -89.25 C 10.257812 -89.195312 11.25 -88.703125 12.40625 -87.765625 C 13.570312 -86.835938 15.054688 -86.34375 16.859375 -86.28125 C 18.671875 -86.226562 19.8125 -85.96875 20.28125 -85.5 C 20.75 -85.03125 21.390625 -84.445312 22.203125 -83.75 C 23.722656 -81.882812 24.859375 -80.75 25.609375 -80.34375 C 26.367188 -79.9375 26.804688 -79.378906 26.921875 -78.671875 C 27.035156 -77.972656 27.5 -77.128906 28.3125 -76.140625 C 29.132812 -75.148438 29.894531 -73.925781 30.59375 -72.46875 C 31.289062 -71.007812 31.785156 -69.695312 32.078125 -68.53125 C 32.367188 -67.375 32.921875 -66.09375 33.734375 -64.6875 C 34.554688 -63.289062 35.023438 -62.179688 35.140625 -61.359375 C 35.253906 -60.546875 35.546875 -59.757812 36.015625 -59 C 36.484375 -58.25 37.15625 -56.820312 38.03125 -54.71875 C 38.90625 -52.625 39.398438 -51.140625 39.515625 -50.265625 C 39.628906 -49.390625 39.890625 -48.75 40.296875 -48.34375 C 40.703125 -47.9375 40.992188 -47.207031 41.171875 -46.15625 C 41.347656 -45.101562 41.609375 -44.171875 41.953125 -43.359375 C 42.304688 -42.546875 42.65625 -41.46875 43 -40.125 C 43.351562 -38.78125 43.789062 -37.785156 44.3125 -37.140625 C 44.84375 -36.503906 45.578125 -35.546875 46.515625 -34.265625 L 48.78125 -34.265625 C 49.363281 -35.429688 49.800781 -36.25 50.09375 -36.71875 C 50.382812 -37.1875 50.675781 -37.59375 50.96875 -37.9375 C 51.257812 -38.289062 51.578125 -38.816406 51.921875 -39.515625 C 52.273438 -40.210938 52.828125 -40.851562 53.578125 -41.4375 C 54.335938 -42.019531 54.773438 -42.773438 54.890625 -43.703125 C 55.015625 -44.640625 55.539062 -45.457031 56.46875 -46.15625 C 57.40625 -46.851562 58.078125 -47.8125 58.484375 -49.03125 C 58.890625 -50.257812 59.5 -51.164062 60.3125 -51.75 C 61.132812 -52.332031 61.601562 -53.085938 61.71875 -54.015625 C 61.832031 -54.953125 62.296875 -55.710938 63.109375 -56.296875 C 63.929688 -56.878906 64.34375 -57.460938 64.34375 -58.046875 C 64.34375 -58.628906 64.660156 -59.238281 65.296875 -59.875 C 65.941406 -60.519531 66.582031 -61.453125 67.21875 -62.671875 C 67.863281 -63.898438 69.03125 -65.242188 70.71875 -66.703125 C 72.414062 -68.160156 73.289062 -69.179688 73.34375 -69.765625 C 73.40625 -70.347656 73.84375 -71.015625 74.65625 -71.765625 C 75.46875 -72.523438 76.34375 -73.488281 77.28125 -74.65625 C 77.976562 -75.59375 78.53125 -76.175781 78.9375 -76.40625 C 79.34375 -76.632812 79.835938 -76.925781 80.421875 -77.28125 C 81.003906 -77.632812 81.554688 -77.664062 82.078125 -77.375 C 82.609375 -77.082031 83.457031 -76.816406 84.625 -76.578125 L 84.96875 -76.0625 C 87.070312 -75.125 88.617188 -74.535156 89.609375 -74.296875 C 90.597656 -74.066406 91.296875 -73.660156 91.703125 -73.078125 C 92.109375 -72.492188 92.78125 -71.738281 93.71875 -70.8125 C 95.8125 -67.78125 97.320312 -65.851562 98.25 -65.03125 C 99.1875 -64.21875 99.742188 -63.316406 99.921875 -62.328125 C 100.097656 -61.335938 100.738281 -59.789062 101.84375 -57.6875 C 102.945312 -55.59375 103.703125 -53.785156 104.109375 -52.265625 C 104.523438 -50.753906 104.960938 -49.675781 105.421875 -49.03125 C 105.890625 -48.394531 106.707031 -47.320312 107.875 -45.8125 L 109.453125 -45.640625 L 110.671875 -46.328125 C 110.785156 -47.148438 111.453125 -48.753906 112.671875 -51.140625 C 113.898438 -53.523438 114.773438 -54.894531 115.296875 -55.25 C 115.828125 -55.601562 116.148438 -56.039062 116.265625 -56.5625 C 116.390625 -57.082031 116.945312 -58.363281 117.9375 -60.40625 C 118.925781 -62.445312 119.566406 -63.613281 119.859375 -63.90625 C 120.148438 -64.195312 120.351562 -64.457031 120.46875 -64.6875 C 120.582031 -64.925781 120.695312 -65.160156 120.8125 -65.390625 L 121.515625 -65.5625 C 123.960938 -71.15625 127.578125 -76.050781 132.359375 -80.25 L 133.9375 -81.125 L 134.109375 -81.828125 C 135.035156 -82.523438 135.703125 -82.988281 136.109375 -83.21875 C 136.523438 -83.457031 137.140625 -83.515625 137.953125 -83.390625 C 138.765625 -83.273438 139.34375 -83.070312 139.6875 -82.78125 C 140.039062 -82.488281 140.507812 -82.3125 141.09375 -82.25 C 141.675781 -82.195312 142.285156 -81.910156 142.921875 -81.390625 C 143.566406 -80.867188 144.707031 -80.253906 146.34375 -79.546875 C 147.28125 -78.265625 148.035156 -76.835938 148.609375 -75.265625 C 149.191406 -73.691406 149.601562 -72.613281 149.84375 -72.03125 C 149.726562 -71.800781 149.640625 -71.65625 149.578125 -71.59375 C 149.515625 -71.539062 149.394531 -70.8125 149.21875 -69.40625 C 149.050781 -68.007812 148.992188 -66.84375 149.046875 -65.90625 C 149.109375 -64.976562 149.050781 -64.078125 148.875 -63.203125 C 148.707031 -62.328125 148.476562 -61.566406 148.1875 -60.921875 C 147.894531 -60.285156 147.570312 -59.125 147.21875 -57.4375 C 146.863281 -55.75 146.21875 -54.117188 145.28125 -52.546875 C 144.351562 -50.972656 143.890625 -49.71875 143.890625 -48.78125 C 143.890625 -47.84375 143.566406 -47.113281 142.921875 -46.59375 C 142.285156 -46.070312 141.9375 -45.398438 141.875 -44.578125 C 141.820312 -43.765625 141.53125 -42.921875 141 -42.046875 C 140.476562 -41.171875 140.015625 -39.972656 139.609375 -38.453125 C 139.203125 -36.941406 138.59375 -35.3125 137.78125 -33.5625 L 137.078125 -33.21875 C 136.722656 -32.40625 136.546875 -31.734375 136.546875 -31.203125 C 136.546875 -30.679688 136.253906 -30.1875 135.671875 -29.71875 C 135.085938 -29.257812 134.796875 -28.707031 134.796875 -28.0625 C 134.796875 -27.414062 134.648438 -27.003906 134.359375 -26.828125 C 134.078125 -26.660156 133.9375 -26.375 133.9375 -25.96875 C 133.9375 -25.5625 133.757812 -25.238281 133.40625 -25 C 133.050781 -24.769531 132.84375 -24.21875 132.78125 -23.34375 C 132.726562 -22.46875 132.0625 -20.75 130.78125 -18.1875 C 129.5 -15.625 128.445312 -13.90625 127.625 -13.03125 C 126.8125 -12.15625 126.347656 -11.484375 126.234375 -11.015625 C 126.117188 -10.546875 125.914062 -10.253906 125.625 -10.140625 C 125.332031 -10.023438 125.070312 -9.617188 124.84375 -8.921875 C 124.019531 -8.453125 123.347656 -8.039062 122.828125 -7.6875 C 122.304688 -7.34375 121.488281 -7.140625 120.375 -7.078125 C 119.269531 -7.023438 118.222656 -7.203125 117.234375 -7.609375 C 116.242188 -8.015625 114.640625 -8.507812 112.421875 -9.09375 L 111.375 -10.140625 C 110.445312 -10.140625 109.691406 -10.050781 109.109375 -9.875 C 108.523438 -9.695312 107.734375 -9.84375 106.734375 -10.3125 C 105.742188 -10.78125 104.925781 -11.242188 104.28125 -11.703125 C 103.644531 -12.171875 102.742188 -12.875 101.578125 -13.8125 C 100.535156 -15.320312 99.691406 -16.484375 99.046875 -17.296875 C 98.410156 -18.117188 97.507812 -19.519531 96.34375 -21.5 C 95.175781 -23.488281 94.503906 -24.800781 94.328125 -25.4375 C 94.148438 -26.082031 93.941406 -26.632812 93.703125 -27.09375 C 93.472656 -27.5625 93.097656 -28.550781 92.578125 -30.0625 C 92.054688 -31.582031 91.765625 -33.1875 91.703125 -34.875 C 91.648438 -36.570312 91.359375 -37.796875 90.828125 -38.546875 C 90.304688 -39.304688 90.070312 -40.179688 90.125 -41.171875 C 90.1875 -42.160156 89.925781 -42.972656 89.34375 -43.609375 C 88.757812 -44.253906 88.410156 -44.835938 88.296875 -45.359375 C 88.179688 -45.890625 88.003906 -46.328125 87.765625 -46.671875 C 87.535156 -47.023438 87.015625 -47.550781 86.203125 -48.25 L 84.96875 -48.25 C 84.269531 -46.96875 83.539062 -45.539062 82.78125 -43.96875 C 82.03125 -42.394531 81.535156 -41.140625 81.296875 -40.203125 C 81.066406 -39.273438 80.773438 -38.488281 80.421875 -37.84375 C 80.078125 -37.207031 79.726562 -36.597656 79.375 -36.015625 C 79.03125 -35.429688 78.738281 -34.734375 78.5 -33.921875 C 78.269531 -33.109375 77.804688 -31.828125 77.109375 -30.078125 C 76.410156 -28.328125 75.828125 -27.039062 75.359375 -26.21875 C 74.890625 -25.40625 74.597656 -24.617188 74.484375 -23.859375 C 74.367188 -23.109375 74.019531 -22.234375 73.4375 -21.234375 C 72.851562 -20.242188 72.472656 -19.601562 72.296875 -19.3125 C 72.117188 -19.03125 72.03125 -18.597656 72.03125 -18.015625 L 71.515625 -17.828125 C 71.046875 -17.015625 70.691406 -16.488281 70.453125 -16.25 C 70.222656 -16.019531 70.050781 -15.46875 69.9375 -14.59375 C 69.820312 -13.71875 69.179688 -12.316406 68.015625 -10.390625 C 66.847656 -8.472656 65.972656 -7.28125 65.390625 -6.8125 C 64.804688 -6.351562 64.164062 -5.710938 63.46875 -4.890625 C 61.601562 -3.960938 59.679688 -3.441406 57.703125 -3.328125 L 56.828125 -2.453125 L 55.78125 -2.265625 L 55.421875 -2.796875 C 52.742188 -3.265625 50.351562 -4.195312 48.25 -5.59375 L 47.5625 -4.890625 C 47.207031 -4.890625 46.941406 -4.800781 46.765625 -4.625 C 46.597656 -4.457031 46.078125 -4.3125 45.203125 -4.1875 C 44.328125 -4.070312 43.453125 -4.128906 42.578125 -4.359375 C 41.703125 -4.597656 40.738281 -4.921875 39.6875 -5.328125 C 38.632812 -5.734375 37.847656 -6.171875 37.328125 -6.640625 C 36.804688 -7.109375 36.367188 -7.398438 36.015625 -7.515625 C 35.671875 -7.628906 35.265625 -7.921875 34.796875 -8.390625 C 32.460938 -10.835938 30.769531 -12.585938 29.71875 -13.640625 C 28.675781 -14.691406 27.425781 -16.0625 25.96875 -17.75 C 24.507812 -19.4375 23.488281 -20.945312 22.90625 -22.28125 C 22.320312 -23.625 21.617188 -24.675781 20.796875 -25.4375 C 19.984375 -26.195312 19.488281 -27.070312 19.3125 -28.0625 C 19.144531 -29.050781 18.59375 -30.300781 17.65625 -31.8125 C 16.726562 -33.332031 15.972656 -34.9375 15.390625 -36.625 C 14.804688 -38.320312 14.425781 -39.519531 14.25 -40.21875 C 14.070312 -40.914062 13.835938 -41.703125 13.546875 -42.578125 C 13.253906 -43.453125 12.90625 -44.003906 12.5 -44.234375 C 12.09375 -44.460938 11.914062 -45.160156 11.96875 -46.328125 C 12.03125 -47.492188 11.796875 -48.425781 11.265625 -49.125 C 10.742188 -49.832031 10.425781 -50.535156 10.3125 -51.234375 C 10.195312 -51.929688 10.019531 -52.484375 9.78125 -52.890625 C 9.550781 -53.296875 9.320312 -54.082031 9.09375 -55.25 C 8.863281 -56.414062 8.367188 -57.957031 7.609375 -59.875 C 6.847656 -61.800781 6.265625 -63.460938 5.859375 -64.859375 C 5.453125 -66.265625 5.21875 -67.257812 5.15625 -67.84375 C 5.101562 -68.425781 4.929688 -68.800781 4.640625 -68.96875 C 4.347656 -69.144531 4.203125 -69.785156 4.203125 -70.890625 C 4.203125 -72.003906 4.023438 -72.820312 3.671875 -73.34375 C 3.316406 -73.875 3.140625 -74.398438 3.140625 -74.921875 C 3.140625 -75.441406 3.023438 -76.050781 2.796875 -76.75 C 2.566406 -77.457031 2.453125 -78.128906 2.453125 -78.765625 C 2.453125 -79.410156 2.304688 -80.050781 2.015625 -80.6875 C 1.722656 -81.332031 1.75 -82.175781 2.09375 -83.21875 C 2.445312 -84.269531 2.738281 -85.113281 2.96875 -85.75 C 3.207031 -86.394531 3.675781 -87.535156 4.375 -89.171875 Z M 5.25 -89.875 "/></g></g></g><g fill="#fcfcfd" fill-opacity="1"><g transform="translate(493.417633, 238.522015)"><g><path d="M 9.265625 -110.671875 C 9.617188 -110.554688 9.96875 -110.523438 10.3125 -110.578125 C 10.664062 -110.640625 11.160156 -110.640625 11.796875 -110.578125 C 12.441406 -110.523438 13.023438 -110.296875 13.546875 -109.890625 C 14.078125 -109.484375 14.804688 -108.988281 15.734375 -108.40625 L 16.265625 -108.75 C 17.773438 -107.582031 19.460938 -106.941406 21.328125 -106.828125 C 22.960938 -108.222656 25.003906 -108.804688 27.453125 -108.578125 L 27.796875 -107.703125 C 28.035156 -107.585938 28.238281 -107.554688 28.40625 -107.609375 C 28.582031 -107.671875 28.875 -107.46875 29.28125 -107 C 29.6875 -106.539062 30.148438 -106.28125 30.671875 -106.21875 C 31.203125 -106.15625 31.703125 -105.945312 32.171875 -105.59375 C 32.640625 -105.25 33.457031 -104.613281 34.625 -103.6875 C 36.601562 -101 38.085938 -99.21875 39.078125 -98.34375 C 40.066406 -97.46875 40.734375 -96.503906 41.078125 -95.453125 C 41.429688 -94.410156 41.609375 -93.597656 41.609375 -93.015625 C 41.609375 -92.429688 41.695312 -91.992188 41.875 -91.703125 C 42.050781 -91.410156 42.050781 -91.085938 41.875 -90.734375 C 41.695312 -90.390625 41.632812 -90.128906 41.6875 -89.953125 C 41.75 -89.773438 41.84375 -89.515625 41.96875 -89.171875 C 41.144531 -88.234375 40.734375 -87.242188 40.734375 -86.203125 C 38.753906 -84.796875 36.65625 -84.503906 34.4375 -85.328125 L 33.921875 -84.796875 C 33.453125 -85.148438 33.097656 -85.410156 32.859375 -85.578125 C 32.628906 -85.753906 32.191406 -85.867188 31.546875 -85.921875 C 30.910156 -85.984375 30.269531 -86.191406 29.625 -86.546875 C 28.988281 -86.898438 27.972656 -87.367188 26.578125 -87.953125 C 24.710938 -86.898438 22.789062 -86.140625 20.8125 -85.671875 L 20.28125 -86.015625 C 20.050781 -85.898438 19.847656 -85.8125 19.671875 -85.75 C 19.492188 -85.695312 18.878906 -85.785156 17.828125 -86.015625 C 16.785156 -86.253906 15.707031 -86.722656 14.59375 -87.421875 C 13.488281 -88.117188 11.890625 -89.164062 9.796875 -90.5625 C 8.742188 -92.082031 7.984375 -93.191406 7.515625 -93.890625 C 7.046875 -94.585938 6.722656 -95.429688 6.546875 -96.421875 C 6.378906 -97.410156 6.117188 -98.019531 5.765625 -98.25 C 5.421875 -98.488281 5.25 -98.78125 5.25 -99.125 C 5.25 -99.476562 5.101562 -99.800781 4.8125 -100.09375 C 4.519531 -100.382812 4.3125 -101.140625 4.1875 -102.359375 C 4.070312 -103.585938 3.957031 -104.289062 3.84375 -104.46875 C 3.726562 -104.644531 3.613281 -104.96875 3.5 -105.4375 C 4.082031 -106.25 4.488281 -106.800781 4.71875 -107.09375 C 4.957031 -107.382812 5.078125 -107.734375 5.078125 -108.140625 C 5.078125 -108.546875 5.21875 -108.835938 5.5 -109.015625 C 5.789062 -109.191406 6.054688 -109.570312 6.296875 -110.15625 C 7.347656 -109.914062 8.335938 -110.085938 9.265625 -110.671875 Z M 19.40625 -81.484375 C 19.988281 -81.484375 20.394531 -81.507812 20.625 -81.5625 C 20.863281 -81.625 21.242188 -81.507812 21.765625 -81.21875 C 22.296875 -80.925781 23.054688 -80.632812 24.046875 -80.34375 C 25.035156 -80.050781 25.703125 -79.671875 26.046875 -79.203125 C 26.398438 -78.734375 26.984375 -78.269531 27.796875 -77.8125 C 28.617188 -76.875 29.203125 -76.140625 29.546875 -75.609375 C 29.898438 -75.085938 30.453125 -74.128906 31.203125 -72.734375 C 31.960938 -71.335938 32.429688 -70.082031 32.609375 -68.96875 C 32.785156 -67.863281 33.046875 -67.019531 33.390625 -66.4375 C 33.742188 -65.851562 33.976562 -65.035156 34.09375 -63.984375 C 34.207031 -62.941406 34.554688 -61.132812 35.140625 -58.5625 C 35.722656 -56 36.21875 -54.3125 36.625 -53.5 C 37.03125 -52.6875 37.234375 -51.753906 37.234375 -50.703125 C 37.234375 -49.648438 37.4375 -48.507812 37.84375 -47.28125 C 38.257812 -46.0625 38.492188 -44.925781 38.546875 -43.875 C 38.609375 -42.832031 38.726562 -41.582031 38.90625 -40.125 C 39.082031 -38.664062 39.171875 -37.03125 39.171875 -35.21875 C 39.171875 -33.414062 39.375 -31.695312 39.78125 -30.0625 C 40.1875 -28.4375 40.210938 -27.1875 39.859375 -26.3125 C 39.515625 -25.4375 39.515625 -24.675781 39.859375 -24.03125 C 40.210938 -23.394531 40.359375 -21.53125 40.296875 -18.4375 C 40.242188 -15.351562 40.15625 -12.703125 40.03125 -10.484375 C 39.914062 -8.273438 39.710938 -6.53125 39.421875 -5.25 C 39.128906 -3.96875 38.691406 -1.75 38.109375 1.40625 C 37.648438 1.632812 37.332031 1.804688 37.15625 1.921875 C 36.976562 2.035156 36.65625 2.117188 36.1875 2.171875 C 35.726562 2.234375 34.769531 2.085938 33.3125 1.734375 C 31.851562 1.390625 30.191406 0.722656 28.328125 -0.265625 C 26.460938 -1.253906 25.179688 -2.15625 24.484375 -2.96875 C 23.773438 -4.019531 23.21875 -4.835938 22.8125 -5.421875 C 22.40625 -6.003906 21.9375 -7.023438 21.40625 -8.484375 C 20.882812 -9.941406 20.65625 -10.929688 20.71875 -11.453125 C 20.78125 -11.972656 20.691406 -12.4375 20.453125 -12.84375 C 20.222656 -13.257812 20.046875 -13.84375 19.921875 -14.59375 C 19.804688 -15.351562 19.515625 -19.023438 19.046875 -25.609375 C 18.585938 -32.203125 18.503906 -36.050781 18.796875 -37.15625 C 19.085938 -38.257812 19.085938 -39.070312 18.796875 -39.59375 C 18.503906 -40.125 18.269531 -41.84375 18.09375 -44.75 C 17.914062 -47.664062 17.738281 -49.707031 17.5625 -50.875 C 17.394531 -52.039062 17.394531 -53.03125 17.5625 -53.84375 C 17.738281 -54.664062 17.710938 -55.597656 17.484375 -56.640625 C 17.253906 -57.691406 17.164062 -58.65625 17.21875 -59.53125 C 17.28125 -60.40625 17.222656 -61.335938 17.046875 -62.328125 C 16.867188 -63.316406 16.804688 -64.394531 16.859375 -65.5625 C 16.921875 -66.726562 16.863281 -68.15625 16.6875 -69.84375 C 16.519531 -71.539062 16.519531 -73.257812 16.6875 -75 C 16.863281 -76.75 17.039062 -77.882812 17.21875 -78.40625 C 17.394531 -78.9375 17.71875 -79.671875 18.1875 -80.609375 Z M 19.40625 -81.484375 "/></g></g></g><g fill="#fcfcfd" fill-opacity="1"><g transform="translate(622.6247, 238.522015)"><g><path d="M 9.09375 -91.09375 C 9.675781 -91.09375 10.171875 -91.148438 10.578125 -91.265625 C 10.984375 -91.378906 11.648438 -91.347656 12.578125 -91.171875 C 13.515625 -91.003906 14.363281 -90.597656 15.125 -89.953125 C 15.882812 -89.316406 16.671875 -88.9375 17.484375 -88.8125 C 18.296875 -88.695312 19.164062 -88.550781 20.09375 -88.375 C 21.03125 -88.207031 21.757812 -87.800781 22.28125 -87.15625 C 22.8125 -86.519531 23.71875 -85.5625 25 -84.28125 C 25.820312 -82.644531 26.519531 -81.5625 27.09375 -81.03125 C 27.675781 -80.507812 28 -79.925781 28.0625 -79.28125 C 28.125 -78.644531 28.359375 -78.148438 28.765625 -77.796875 C 29.171875 -77.453125 29.375 -77.132812 29.375 -76.84375 C 29.375 -76.550781 29.457031 -76.257812 29.625 -75.96875 C 29.800781 -75.675781 30.242188 -75.125 30.953125 -74.3125 C 31.535156 -74.195312 32.03125 -74.140625 32.4375 -74.140625 C 32.84375 -74.140625 33.421875 -74.222656 34.171875 -74.390625 C 34.929688 -74.566406 35.691406 -75.117188 36.453125 -76.046875 C 37.210938 -76.984375 38.085938 -77.597656 39.078125 -77.890625 C 40.066406 -78.179688 41.113281 -79.054688 42.21875 -80.515625 C 43.332031 -81.972656 44.382812 -82.960938 45.375 -83.484375 C 46.363281 -84.015625 47.234375 -84.28125 47.984375 -84.28125 C 48.742188 -84.28125 49.5625 -84.710938 50.4375 -85.578125 C 51.3125 -86.453125 52.390625 -86.921875 53.671875 -86.984375 C 54.953125 -87.046875 56.523438 -87.394531 58.390625 -88.03125 C 60.265625 -88.675781 61.898438 -89.113281 63.296875 -89.34375 C 64.691406 -89.570312 66.726562 -89.742188 69.40625 -89.859375 C 72.09375 -89.984375 74.425781 -89.925781 76.40625 -89.6875 C 78.382812 -89.457031 80.191406 -89.140625 81.828125 -88.734375 C 83.460938 -88.328125 84.6875 -87.914062 85.5 -87.5 C 86.3125 -87.09375 87.421875 -86.660156 88.828125 -86.203125 L 89.171875 -85.5 C 90.566406 -84.914062 91.703125 -84.445312 92.578125 -84.09375 C 93.453125 -83.75 94.351562 -83.164062 95.28125 -82.34375 C 96.21875 -81.53125 96.710938 -81.035156 96.765625 -80.859375 C 96.828125 -80.691406 97.09375 -80.609375 97.5625 -80.609375 C 100.707031 -77.691406 103.269531 -75.125 105.25 -72.90625 C 107.238281 -70.695312 108.609375 -69.035156 109.359375 -67.921875 C 110.117188 -66.816406 110.613281 -65.769531 110.84375 -64.78125 C 111.082031 -63.789062 111.578125 -62.828125 112.328125 -61.890625 C 113.085938 -60.960938 113.703125 -59.59375 114.171875 -57.78125 C 114.640625 -55.976562 114.929688 -54.316406 115.046875 -52.796875 C 115.160156 -51.285156 115.421875 -49.421875 115.828125 -47.203125 C 116.242188 -44.992188 116.625 -42.578125 116.96875 -39.953125 C 117.320312 -37.328125 117.265625 -35.253906 116.796875 -33.734375 C 116.328125 -32.222656 116.148438 -30.625 116.265625 -28.9375 C 116.390625 -27.25 116.242188 -25.9375 115.828125 -25 C 115.421875 -24.070312 115.21875 -22.675781 115.21875 -20.8125 C 115.21875 -18.945312 115.097656 -17.578125 114.859375 -16.703125 C 114.628906 -15.828125 114.335938 -15.242188 113.984375 -14.953125 C 113.640625 -14.660156 113.351562 -14.335938 113.125 -13.984375 C 112.894531 -13.640625 112.488281 -13.054688 111.90625 -12.234375 C 110.96875 -11.890625 110.207031 -11.539062 109.625 -11.1875 C 109.039062 -10.84375 107.988281 -10.84375 106.46875 -11.1875 C 104.957031 -11.539062 103.878906 -12.007812 103.234375 -12.59375 C 102.597656 -13.175781 101.664062 -13.550781 100.4375 -13.71875 C 99.21875 -13.894531 98.171875 -14.15625 97.296875 -14.5 C 96.421875 -14.851562 95.691406 -15.289062 95.109375 -15.8125 C 94.523438 -16.34375 93.535156 -17.25 92.140625 -18.53125 C 90.972656 -20.863281 90.128906 -22.523438 89.609375 -23.515625 C 89.085938 -24.503906 88.679688 -25.84375 88.390625 -27.53125 C 88.097656 -29.226562 87.890625 -31.382812 87.765625 -34 C 87.648438 -36.625 87.679688 -38.722656 87.859375 -40.296875 C 88.035156 -41.867188 88.148438 -42.742188 88.203125 -42.921875 C 88.265625 -43.097656 88.351562 -43.300781 88.46875 -43.53125 L 88.125 -44.234375 C 88.351562 -44.816406 88.523438 -45.222656 88.640625 -45.453125 C 88.765625 -45.691406 88.851562 -46.828125 88.90625 -48.859375 C 88.96875 -50.898438 89.226562 -54.398438 89.6875 -59.359375 C 90.15625 -64.316406 89.628906 -67.640625 88.109375 -69.328125 C 86.597656 -71.015625 85.378906 -72.265625 84.453125 -73.078125 C 84.210938 -73.078125 83.304688 -73.367188 81.734375 -73.953125 C 80.160156 -74.535156 78.734375 -74.828125 77.453125 -74.828125 C 76.171875 -74.828125 75.035156 -74.972656 74.046875 -75.265625 C 73.054688 -75.554688 71.921875 -75.671875 70.640625 -75.609375 C 69.359375 -75.554688 68.160156 -75.179688 67.046875 -74.484375 C 65.941406 -73.785156 64.921875 -73.4375 63.984375 -73.4375 C 63.054688 -73.4375 62.210938 -73 61.453125 -72.125 C 60.703125 -71.25 59.800781 -70.578125 58.75 -70.109375 C 57.695312 -69.640625 56.90625 -69.226562 56.375 -68.875 C 55.851562 -68.53125 55.128906 -67.894531 54.203125 -66.96875 C 53.847656 -66.613281 53.640625 -66.316406 53.578125 -66.078125 C 53.523438 -65.847656 52.914062 -65.265625 51.75 -64.328125 C 50.582031 -63.398438 49.910156 -62.554688 49.734375 -61.796875 C 49.566406 -61.046875 49.191406 -60.378906 48.609375 -59.796875 C 48.023438 -59.210938 47.644531 -58.65625 47.46875 -58.125 C 47.289062 -57.601562 46.941406 -57.195312 46.421875 -56.90625 C 45.898438 -56.613281 45.429688 -55.941406 45.015625 -54.890625 C 44.609375 -53.847656 44.289062 -52.710938 44.0625 -51.484375 C 43.832031 -50.265625 43.335938 -49.242188 42.578125 -48.421875 C 41.816406 -47.609375 41.347656 -46.53125 41.171875 -45.1875 C 40.992188 -43.851562 40.554688 -42.019531 39.859375 -39.6875 C 39.160156 -37.351562 38.8125 -35.425781 38.8125 -33.90625 C 38.8125 -32.394531 38.632812 -30.941406 38.28125 -29.546875 C 37.9375 -28.148438 37.675781 -25.734375 37.5 -22.296875 C 37.320312 -18.859375 37.03125 -15.707031 36.625 -12.84375 C 36.21875 -9.988281 35.867188 -7.773438 35.578125 -6.203125 C 35.285156 -4.628906 34.960938 -3.519531 34.609375 -2.875 C 34.265625 -2.238281 33.972656 -1.773438 33.734375 -1.484375 C 33.503906 -1.191406 33.21875 -0.875 32.875 -0.53125 C 32.175781 -0.175781 31.679688 0.0546875 31.390625 0.171875 C 31.097656 0.285156 30.304688 0.457031 29.015625 0.6875 C 27.734375 0.925781 26.742188 0.78125 26.046875 0.25 C 25.347656 -0.269531 24.5625 -0.613281 23.6875 -0.78125 C 22.8125 -0.957031 21.820312 -1.484375 20.71875 -2.359375 C 19.613281 -3.234375 18.738281 -3.757812 18.09375 -3.9375 C 17.457031 -4.113281 16.875 -3.992188 16.34375 -3.578125 C 15.820312 -3.171875 15.003906 -3.203125 13.890625 -3.671875 C 12.785156 -4.140625 12 -4.546875 11.53125 -4.890625 C 11.070312 -5.242188 10.316406 -5.710938 9.265625 -6.296875 C 8.566406 -7.109375 8.097656 -7.71875 7.859375 -8.125 C 7.628906 -8.539062 6.988281 -9.59375 5.9375 -11.28125 C 4.894531 -12.96875 4.253906 -14.800781 4.015625 -16.78125 C 3.785156 -18.757812 3.640625 -21.296875 3.578125 -24.390625 C 3.523438 -27.484375 3.613281 -29.988281 3.84375 -31.90625 C 4.082031 -33.832031 4.226562 -35.785156 4.28125 -37.765625 C 4.34375 -39.742188 4.398438 -40.789062 4.453125 -40.90625 C 4.515625 -41.03125 4.722656 -41.265625 5.078125 -41.609375 C 4.722656 -41.847656 4.515625 -42.082031 4.453125 -42.3125 C 4.398438 -42.539062 4.578125 -45.304688 4.984375 -50.609375 C 5.390625 -55.921875 5.535156 -61.835938 5.421875 -68.359375 C 5.304688 -74.890625 5.304688 -79.113281 5.421875 -81.03125 C 5.535156 -82.957031 5.679688 -84.359375 5.859375 -85.234375 C 6.035156 -86.109375 6.472656 -87.59375 7.171875 -89.6875 Z M 9.09375 -91.09375 "/></g></g></g><g fill="#fcfcfd" fill-opacity="1"><g transform="translate(827.011385, 238.522015)"><g><path d="M 9.609375 -125.015625 C 9.960938 -125.015625 10.253906 -125.039062 10.484375 -125.09375 C 10.722656 -125.15625 11.394531 -125.066406 12.5 -124.828125 C 13.601562 -124.597656 14.648438 -124.101562 15.640625 -123.34375 C 16.640625 -122.59375 17.632812 -122.273438 18.625 -122.390625 C 19.613281 -122.503906 20.335938 -122.382812 20.796875 -122.03125 C 21.265625 -121.6875 21.910156 -121.335938 22.734375 -120.984375 C 23.546875 -120.171875 24.269531 -119.472656 24.90625 -118.890625 C 25.550781 -118.304688 26.253906 -117.082031 27.015625 -115.21875 C 27.773438 -113.351562 28.382812 -111.367188 28.84375 -109.265625 C 29.3125 -107.171875 29.515625 -105.539062 29.453125 -104.375 C 29.398438 -103.21875 29.546875 -101.382812 29.890625 -98.875 C 30.242188 -96.363281 30.332031 -94.0625 30.15625 -91.96875 C 29.976562 -89.875 30.035156 -88.414062 30.328125 -87.59375 C 30.617188 -86.78125 30.796875 -86.050781 30.859375 -85.40625 C 30.921875 -84.769531 30.863281 -84.070312 30.6875 -83.3125 C 30.507812 -82.550781 30.535156 -81.472656 30.765625 -80.078125 C 31.003906 -78.679688 31.09375 -77.457031 31.03125 -76.40625 C 30.976562 -75.351562 30.953125 -73.488281 30.953125 -70.8125 L 32 -70.8125 C 32.34375 -71.976562 33.273438 -73.203125 34.796875 -74.484375 C 36.078125 -75.535156 37.472656 -76.644531 38.984375 -77.8125 L 40.90625 -79.734375 L 44.0625 -82.171875 L 45.8125 -84.453125 L 46.515625 -84.625 C 46.515625 -84.976562 47.5625 -86.113281 49.65625 -88.03125 C 51.75 -89.957031 52.765625 -91.066406 52.703125 -91.359375 C 52.648438 -91.648438 52.679688 -91.851562 52.796875 -91.96875 C 54.203125 -92.894531 55.34375 -93.617188 56.21875 -94.140625 C 57.09375 -94.671875 58.171875 -94.90625 59.453125 -94.84375 C 60.734375 -94.789062 61.835938 -94.5625 62.765625 -94.15625 C 63.703125 -93.75 64.546875 -93.222656 65.296875 -92.578125 C 66.054688 -91.941406 66.875 -91.679688 67.75 -91.796875 C 68.625 -91.910156 69.234375 -91.789062 69.578125 -91.4375 C 69.929688 -91.09375 70.222656 -90.832031 70.453125 -90.65625 C 70.691406 -90.476562 71.101562 -90.273438 71.6875 -90.046875 C 72.269531 -88.992188 72.765625 -88.234375 73.171875 -87.765625 C 73.578125 -87.304688 73.894531 -86.640625 74.125 -85.765625 C 74.363281 -84.890625 74.570312 -83.78125 74.75 -82.4375 C 74.925781 -81.09375 74.75 -80.039062 74.21875 -79.28125 C 73.695312 -78.53125 73.40625 -78.007812 73.34375 -77.71875 C 73.289062 -77.425781 73.144531 -76.988281 72.90625 -76.40625 L 72.5625 -76.234375 C 69.875 -72.734375 67.078125 -69.46875 64.171875 -66.4375 L 62.765625 -65.390625 C 61.015625 -63.171875 59.269531 -61.191406 57.53125 -59.453125 L 56.828125 -58.921875 L 54.375 -56.125 C 53.789062 -55.425781 53.09375 -55.019531 52.28125 -54.90625 L 49.828125 -52.109375 C 49.484375 -51.753906 48.988281 -51.457031 48.34375 -51.21875 C 47.695312 -50.988281 47.285156 -50.785156 47.109375 -50.609375 C 46.941406 -50.441406 46.625 -50.300781 46.15625 -50.1875 L 45.984375 -49.125 L 45.8125 -48.953125 L 45.453125 -48.4375 L 43.71875 -47.203125 L 43.359375 -45.640625 L 44.0625 -44.765625 L 45.8125 -43.359375 L 45.984375 -42.65625 L 47.5625 -41.78125 L 47.734375 -41.4375 C 51.109375 -39.6875 53.523438 -38.519531 54.984375 -37.9375 C 56.441406 -37.351562 57.578125 -36.710938 58.390625 -36.015625 C 59.210938 -35.316406 60.234375 -34.703125 61.453125 -34.171875 C 62.679688 -33.648438 63.757812 -32.953125 64.6875 -32.078125 C 65.625 -31.203125 67.023438 -29.71875 68.890625 -27.625 C 69.359375 -26.695312 69.820312 -25.96875 70.28125 -25.4375 C 70.75 -24.914062 71.128906 -24.070312 71.421875 -22.90625 C 71.710938 -21.738281 71.710938 -20.953125 71.421875 -20.546875 C 71.128906 -20.140625 70.867188 -19.523438 70.640625 -18.703125 C 69.941406 -18.472656 69.066406 -18.300781 68.015625 -18.1875 C 66.960938 -18.070312 66.054688 -18.128906 65.296875 -18.359375 C 64.546875 -18.585938 63.757812 -18.734375 62.9375 -18.796875 C 62.125 -18.859375 61.191406 -18.769531 60.140625 -18.53125 C 59.097656 -18.300781 57.992188 -18.15625 56.828125 -18.09375 C 55.660156 -18.039062 54.582031 -18.1875 53.59375 -18.53125 C 52.601562 -18.882812 51.550781 -19.03125 50.4375 -18.96875 C 49.332031 -18.914062 48.164062 -19.265625 46.9375 -20.015625 C 45.71875 -20.773438 44.175781 -21.269531 42.3125 -21.5 C 40.445312 -21.738281 38.875 -22.265625 37.59375 -23.078125 C 36.3125 -23.890625 35.378906 -24.351562 34.796875 -24.46875 C 34.210938 -24.59375 33.6875 -24.800781 33.21875 -25.09375 C 32.75 -25.382812 32.050781 -25.765625 31.125 -26.234375 L 30.421875 -25.875 C 30.066406 -21.332031 29.859375 -18.359375 29.796875 -16.953125 C 29.742188 -15.554688 29.742188 -14.363281 29.796875 -13.375 C 29.859375 -12.382812 29.859375 -11.1875 29.796875 -9.78125 C 29.742188 -8.382812 29.515625 -6.988281 29.109375 -5.59375 C 28.703125 -4.195312 28.5 -3.0625 28.5 -2.1875 C 28.5 -1.3125 28.410156 -0.695312 28.234375 -0.34375 C 28.054688 0 27.851562 0.582031 27.625 1.40625 C 27.269531 1.632812 26.976562 1.804688 26.75 1.921875 C 26.519531 2.035156 26.140625 2.179688 25.609375 2.359375 C 25.085938 2.535156 24.5625 2.535156 24.03125 2.359375 C 23.507812 2.179688 22.988281 1.976562 22.46875 1.75 C 21.945312 1.519531 21.070312 1.195312 19.84375 0.78125 C 18.625 0.375 17.660156 0.0546875 16.953125 -0.171875 C 16.253906 -0.410156 15.671875 -0.757812 15.203125 -1.21875 C 14.742188 -1.6875 13.988281 -2.390625 12.9375 -3.328125 C 12.707031 -4.023438 12.5625 -4.488281 12.5 -4.71875 C 12.4375 -4.957031 12.226562 -5.191406 11.875 -5.421875 C 11.53125 -5.648438 11.328125 -6.023438 11.265625 -6.546875 C 11.210938 -7.078125 10.984375 -7.515625 10.578125 -7.859375 C 10.171875 -8.210938 9.847656 -8.828125 9.609375 -9.703125 C 9.378906 -10.578125 9.265625 -11.363281 9.265625 -12.0625 C 9.265625 -12.757812 9.085938 -13.367188 8.734375 -13.890625 C 8.390625 -14.421875 8.160156 -15.351562 8.046875 -16.6875 C 7.929688 -18.03125 7.664062 -18.847656 7.25 -19.140625 C 6.84375 -19.429688 6.550781 -21.148438 6.375 -24.296875 C 6.207031 -27.453125 5.976562 -29.40625 5.6875 -30.15625 C 5.394531 -30.914062 5.21875 -31.703125 5.15625 -32.515625 C 5.101562 -33.335938 4.988281 -34.300781 4.8125 -35.40625 C 4.632812 -36.507812 4.570312 -37.734375 4.625 -39.078125 C 4.6875 -40.421875 4.515625 -43.742188 4.109375 -49.046875 C 3.703125 -54.347656 3.523438 -62.332031 3.578125 -73 C 3.640625 -83.664062 3.695312 -90.191406 3.75 -92.578125 C 3.8125 -94.972656 3.929688 -96.78125 4.109375 -98 C 4.285156 -99.21875 4.398438 -99.882812 4.453125 -100 C 4.515625 -100.125 4.601562 -100.300781 4.71875 -100.53125 C 4.601562 -101.113281 4.515625 -101.640625 4.453125 -102.109375 C 4.398438 -102.578125 4.457031 -103.769531 4.625 -105.6875 C 4.800781 -107.613281 4.921875 -109.859375 4.984375 -112.421875 C 5.046875 -114.984375 5.28125 -116.582031 5.6875 -117.21875 C 6.09375 -117.863281 6.265625 -118.566406 6.203125 -119.328125 C 6.148438 -120.085938 6.296875 -120.550781 6.640625 -120.71875 C 6.992188 -120.894531 7.316406 -121.453125 7.609375 -122.390625 C 7.898438 -123.328125 8.21875 -123.910156 8.5625 -124.140625 C 8.914062 -124.367188 9.265625 -124.660156 9.609375 -125.015625 Z M 9.609375 -125.015625 "/></g></g></g><g fill="#fcfcfd" fill-opacity="1"><g transform="translate(989.087689, 238.522015)"><g><path d="M 51.046875 -94.421875 C 52.210938 -94.421875 53.234375 -94.445312 54.109375 -94.5 C 54.984375 -94.5625 55.945312 -94.53125 57 -94.40625 C 58.050781 -94.289062 59.1875 -94.054688 60.40625 -93.703125 C 61.632812 -93.359375 63.035156 -92.835938 64.609375 -92.140625 C 66.179688 -91.441406 67.195312 -90.890625 67.65625 -90.484375 C 68.125 -90.078125 68.769531 -89.640625 69.59375 -89.171875 L 71.34375 -87.25 C 71.457031 -87.007812 71.628906 -86.945312 71.859375 -87.0625 C 72.085938 -87.1875 72.523438 -86.867188 73.171875 -86.109375 C 73.816406 -85.347656 74.894531 -84.15625 76.40625 -82.53125 C 78.851562 -79.257812 80.539062 -77.007812 81.46875 -75.78125 C 82.40625 -74.5625 83.253906 -73.335938 84.015625 -72.109375 C 84.773438 -70.890625 85.210938 -69.957031 85.328125 -69.3125 C 85.441406 -68.675781 85.703125 -68.15625 86.109375 -67.75 C 86.515625 -67.34375 86.976562 -66.554688 87.5 -65.390625 C 88.03125 -64.222656 88.320312 -63.203125 88.375 -62.328125 C 88.4375 -61.453125 88.640625 -60.488281 88.984375 -59.4375 C 89.335938 -58.394531 89.515625 -56.472656 89.515625 -53.671875 C 89.515625 -50.878906 89.484375 -48.632812 89.421875 -46.9375 C 89.367188 -45.25 89.164062 -44.082031 88.8125 -43.4375 C 88.46875 -42.800781 88.265625 -41.785156 88.203125 -40.390625 C 88.148438 -38.992188 87.859375 -37.941406 87.328125 -37.234375 C 86.804688 -36.535156 86.515625 -35.691406 86.453125 -34.703125 C 86.398438 -33.710938 86.140625 -32.546875 85.671875 -31.203125 C 85.203125 -29.867188 84.675781 -28.878906 84.09375 -28.234375 C 83.507812 -27.597656 83.160156 -26.78125 83.046875 -25.78125 C 82.929688 -24.789062 82.492188 -23.890625 81.734375 -23.078125 C 80.984375 -22.265625 79.734375 -20.457031 77.984375 -17.65625 L 76.9375 -16.78125 C 76.582031 -16.3125 76.375 -15.875 76.3125 -15.46875 C 76.257812 -15.0625 75.96875 -14.507812 75.4375 -13.8125 C 74.914062 -13.113281 73.78125 -11.890625 72.03125 -10.140625 C 71.914062 -10.023438 71.800781 -9.992188 71.6875 -10.046875 C 71.570312 -10.109375 71.28125 -9.847656 70.8125 -9.265625 C 70.34375 -8.679688 69.726562 -8.300781 68.96875 -8.125 C 68.21875 -7.957031 67.171875 -7.171875 65.828125 -5.765625 C 64.484375 -4.367188 63.226562 -3.347656 62.0625 -2.703125 C 60.90625 -2.066406 60.003906 -1.75 59.359375 -1.75 C 58.710938 -1.75 58.128906 -1.660156 57.609375 -1.484375 C 57.085938 -1.304688 56.242188 -1.046875 55.078125 -0.703125 L 54.546875 -1.21875 L 52.109375 -0.703125 L 51.75 0 C 50.9375 -0.113281 50.328125 -0.226562 49.921875 -0.34375 C 49.515625 -0.46875 49.164062 -0.441406 48.875 -0.265625 C 48.582031 -0.0859375 48.054688 -0.0546875 47.296875 -0.171875 C 46.535156 -0.285156 45.628906 -0.632812 44.578125 -1.21875 C 43.535156 -1.800781 42.398438 -1.890625 41.171875 -1.484375 C 39.953125 -1.078125 38.816406 -0.84375 37.765625 -0.78125 C 36.710938 -0.726562 35.953125 -0.816406 35.484375 -1.046875 C 35.023438 -1.285156 34.503906 -1.460938 33.921875 -1.578125 C 33.335938 -1.691406 32.488281 -2.007812 31.375 -2.53125 C 30.269531 -3.0625 28.613281 -3.847656 26.40625 -4.890625 L 25.703125 -5.765625 L 24.828125 -6.296875 L 23.78125 -7 L 18.359375 -12.0625 C 16.960938 -13.8125 16.054688 -14.914062 15.640625 -15.375 C 15.234375 -15.84375 14.972656 -16.28125 14.859375 -16.6875 C 14.742188 -17.101562 14.394531 -17.628906 13.8125 -18.265625 C 13.226562 -18.910156 12.757812 -19.523438 12.40625 -20.109375 C 12.0625 -20.691406 11.6875 -21.128906 11.28125 -21.421875 C 10.875 -21.710938 10.582031 -22.351562 10.40625 -23.34375 C 10.226562 -24.332031 9.847656 -25.085938 9.265625 -25.609375 C 8.679688 -26.140625 8.359375 -26.632812 8.296875 -27.09375 C 8.242188 -27.5625 8.039062 -27.96875 7.6875 -28.3125 C 7.34375 -28.664062 7.140625 -29.046875 7.078125 -29.453125 C 7.023438 -29.867188 6.820312 -30.28125 6.46875 -30.6875 C 6.113281 -31.09375 5.90625 -31.960938 5.84375 -33.296875 C 5.789062 -34.640625 5.472656 -35.660156 4.890625 -36.359375 C 4.304688 -37.066406 3.984375 -37.972656 3.921875 -39.078125 C 3.867188 -40.179688 3.84375 -41.316406 3.84375 -42.484375 C 3.84375 -43.648438 3.753906 -44.726562 3.578125 -45.71875 C 3.410156 -46.707031 3.410156 -47.726562 3.578125 -48.78125 C 3.753906 -49.832031 3.8125 -51.226562 3.75 -52.96875 C 3.695312 -54.71875 3.90625 -55.769531 4.375 -56.125 C 4.84375 -56.476562 5.046875 -57.117188 4.984375 -58.046875 C 4.921875 -58.984375 5.179688 -59.972656 5.765625 -61.015625 C 6.347656 -62.066406 6.640625 -62.941406 6.640625 -63.640625 C 6.640625 -64.335938 6.726562 -64.890625 6.90625 -65.296875 C 7.082031 -65.710938 7.316406 -66.066406 7.609375 -66.359375 C 7.898438 -66.648438 8.046875 -67 8.046875 -67.40625 C 8.046875 -67.8125 8.273438 -68.21875 8.734375 -68.625 C 9.203125 -69.03125 9.492188 -69.523438 9.609375 -70.109375 C 9.734375 -70.691406 9.910156 -71.097656 10.140625 -71.328125 C 10.367188 -71.566406 10.539062 -71.914062 10.65625 -72.375 C 10.78125 -72.84375 11.015625 -73.398438 11.359375 -74.046875 C 11.710938 -74.691406 12.265625 -75.363281 13.015625 -76.0625 C 13.773438 -76.757812 14.210938 -77.191406 14.328125 -77.359375 C 14.453125 -77.535156 14.570312 -77.742188 14.6875 -77.984375 C 16.320312 -79.148438 17.570312 -80.050781 18.4375 -80.6875 C 19.3125 -81.332031 20.359375 -81.65625 21.578125 -81.65625 C 22.804688 -81.65625 24.09375 -81.421875 25.4375 -80.953125 C 26.78125 -80.484375 28.117188 -80.191406 29.453125 -80.078125 C 30.796875 -79.960938 31.726562 -80.132812 32.25 -80.59375 C 32.78125 -81.0625 33.394531 -81.472656 34.09375 -81.828125 C 34.09375 -82.640625 34.382812 -83.394531 34.96875 -84.09375 C 35.78125 -84.5625 36.421875 -84.941406 36.890625 -85.234375 C 37.359375 -85.523438 37.820312 -85.929688 38.28125 -86.453125 C 38.75 -86.984375 39.21875 -87.332031 39.6875 -87.5 C 40.15625 -87.675781 40.625 -87.882812 41.09375 -88.125 L 41.609375 -89.515625 C 44.523438 -91.378906 47.671875 -93.015625 51.046875 -94.421875 Z M 55.78125 -79.546875 L 55.25 -79.03125 C 53.613281 -77.507812 52.328125 -76.515625 51.390625 -76.046875 C 50.460938 -75.585938 49.617188 -74.945312 48.859375 -74.125 C 48.109375 -73.3125 47.5 -72.875 47.03125 -72.8125 C 46.5625 -72.757812 46.210938 -72.585938 45.984375 -72.296875 C 45.753906 -72.003906 45.460938 -71.769531 45.109375 -71.59375 C 44.753906 -71.425781 44.347656 -71.222656 43.890625 -70.984375 L 39.34375 -65.390625 L 38.296875 -65.046875 C 37.015625 -63.765625 36.109375 -62.890625 35.578125 -62.421875 C 35.054688 -61.953125 34.707031 -61.453125 34.53125 -60.921875 C 34.351562 -60.398438 33.859375 -59.703125 33.046875 -58.828125 C 32.234375 -57.960938 31.503906 -57.117188 30.859375 -56.296875 C 30.210938 -55.484375 29.859375 -54.695312 29.796875 -53.9375 C 29.742188 -53.175781 29.515625 -52.503906 29.109375 -51.921875 C 28.703125 -51.335938 28.523438 -50 28.578125 -47.90625 C 28.640625 -45.8125 28.84375 -43.625 29.1875 -41.34375 C 29.539062 -39.070312 30.007812 -37.410156 30.59375 -36.359375 C 31.175781 -35.316406 31.523438 -34.414062 31.640625 -33.65625 C 31.765625 -32.894531 32.085938 -31.988281 32.609375 -30.9375 C 33.128906 -29.894531 33.679688 -29.023438 34.265625 -28.328125 C 34.847656 -27.628906 35.898438 -26.519531 37.421875 -25 C 37.648438 -24.882812 37.851562 -24.851562 38.03125 -24.90625 C 38.207031 -24.96875 38.46875 -24.820312 38.8125 -24.46875 C 39.164062 -24.125 39.804688 -23.953125 40.734375 -23.953125 C 41.671875 -23.953125 42.398438 -24.066406 42.921875 -24.296875 C 43.453125 -24.535156 44.035156 -24.679688 44.671875 -24.734375 C 45.316406 -24.796875 45.957031 -24.972656 46.59375 -25.265625 C 47.238281 -25.554688 47.851562 -26.019531 48.4375 -26.65625 C 49.019531 -27.300781 49.539062 -27.738281 50 -27.96875 C 50.46875 -28.207031 50.9375 -28.382812 51.40625 -28.5 L 52.453125 -29.890625 C 54.316406 -31.054688 56.179688 -32.570312 58.046875 -34.4375 C 58.273438 -34.675781 58.445312 -35 58.5625 -35.40625 C 58.6875 -35.8125 59.210938 -36.566406 60.140625 -37.671875 C 61.078125 -38.785156 61.601562 -39.601562 61.71875 -40.125 C 61.832031 -40.644531 62.003906 -41.050781 62.234375 -41.34375 C 62.472656 -41.632812 62.679688 -41.925781 62.859375 -42.21875 C 63.035156 -42.507812 63.296875 -42.832031 63.640625 -43.1875 C 63.992188 -43.539062 64.171875 -44.125 64.171875 -44.9375 C 64.171875 -45.75 64.578125 -46.765625 65.390625 -47.984375 C 66.203125 -49.210938 66.578125 -50.378906 66.515625 -51.484375 C 66.460938 -52.597656 66.671875 -53.300781 67.140625 -53.59375 C 67.609375 -53.882812 67.988281 -55.628906 68.28125 -58.828125 C 68.570312 -62.035156 68.71875 -63.898438 68.71875 -64.421875 C 68.71875 -64.953125 68.6875 -65.445312 68.625 -65.90625 C 68.5625 -66.375 68.441406 -66.8125 68.265625 -67.21875 C 68.097656 -67.632812 67.984375 -68.28125 67.921875 -69.15625 C 67.867188 -70.03125 67.695312 -70.898438 67.40625 -71.765625 C 67.113281 -72.640625 66.820312 -73.367188 66.53125 -73.953125 C 66.238281 -74.535156 65.882812 -75 65.46875 -75.34375 C 65.0625 -75.695312 64.570312 -76.285156 64 -77.109375 C 63.644531 -77.335938 62.828125 -77.742188 61.546875 -78.328125 C 60.265625 -78.910156 59.300781 -79.203125 58.65625 -79.203125 C 58.019531 -79.203125 57.234375 -79.257812 56.296875 -79.375 Z M 55.78125 -79.546875 "/></g></g></g></svg>